<svg xmlns="http://www.w3.org/2000/svg" viewBox="0 0 60 60"><defs><style>.cls-1{fill:#4e37b2;}.cls-2{fill:#fff;}</style></defs><g id="Layer_2" data-name="Layer 2"><g id="Layer_1-2" data-name="Layer 1"><g id="seafood"><circle class="cls-1" cx="30" cy="30" r="30"/></g><path class="cls-2" d="M40.36,27.82H32.18V19.64A1.63,1.63,0,0,0,30.55,18h-1.1a1.63,1.63,0,0,0-1.63,1.64v8.18H19.64A1.63,1.63,0,0,0,18,29.45v1.1a1.63,1.63,0,0,0,1.64,1.63h8.18v8.18A1.63,1.63,0,0,0,29.45,42h1.1a1.63,1.63,0,0,0,1.63-1.64V32.18h8.18A1.63,1.63,0,0,0,42,30.55v-1.1A1.63,1.63,0,0,0,40.36,27.82Z"/></g></g></svg>