<svg xmlns="http://www.w3.org/2000/svg" viewBox="0 0 60 60"><defs><style>.cls-1{fill:#4e37b2;}.cls-2{fill:#d0004f;}.cls-3{fill:#00a763;}.cls-4{fill:#007845;}.cls-5{fill:#f1f1f4;}.cls-6{fill:#e2dff4;}.cls-7{fill:#d5d3ea;}.cls-8{fill:#ff5c5c;}</style></defs><g id="Layer_2" data-name="Layer 2"><g id="Layer_1-2" data-name="Layer 1"><g id="alcohol"><circle class="cls-1" cx="30" cy="30" r="30"/><path class="cls-2" d="M44.14,22.57a1.1,1.1,0,0,1-.58-.16,1.17,1.17,0,0,1-.43-1.6l1.17-2a1.17,1.17,0,1,1,2,1.17l-1.17,2A1.17,1.17,0,0,1,44.14,22.57Z"/><path class="cls-2" d="M46.8,25a1.17,1.17,0,0,1-.59-2.19l2-1.17a1.17,1.17,0,0,1,1.17,2l-2,1.17A1.1,1.1,0,0,1,46.8,25Z"/><path class="cls-3" d="M33.66,24l-.54-1.22a1.15,1.15,0,0,0-.48-.54L27.9,19.52a1.24,1.24,0,0,0-.71-.15l-1.32.14A9,9,0,0,0,19,24l-.94,1.62-2.31,6.34-4.33,5.17-1,1.69a3.52,3.52,0,0,0,1.29,4.8l8.12,4.69A3.52,3.52,0,0,0,24.68,47l8.56-14.82A9,9,0,0,0,33.66,24Z"/><path class="cls-4" d="M33.66,24l-.54-1.22a1.15,1.15,0,0,0-.48-.54l-2.37-1.37-14.45,25,4.06,2.35A3.52,3.52,0,0,0,24.68,47l8.56-14.82A9,9,0,0,0,33.66,24Z"/><path class="cls-5" d="M21.51,41.54,27,32.07a1.16,1.16,0,0,0-.43-1.6l-8.45-4.89L11.45,37.09,19.9,42A1.19,1.19,0,0,0,21.51,41.54Z"/><path class="cls-6" d="M38.2,14a1.17,1.17,0,0,0-.43-1.6l-3.9-2.25a1.17,1.17,0,0,0-1.6.43l-1.76,3a1.17,1.17,0,0,0,.43,1.6l3.9,2.25a1.17,1.17,0,0,0,1.6-.43Z"/><path class="cls-7" d="M37.77,12.41l-2-1.13-2.93,5.08,2,1.12a1.17,1.17,0,0,0,1.6-.43l1.76-3A1.17,1.17,0,0,0,37.77,12.41Z"/><path class="cls-5" d="M27.19,19.37l3.32-5.74,5.93,3.43L33.12,22.8Z"/><path class="cls-6" d="M30.16,21.09l3.31-5.75,3,1.72L33.12,22.8Z"/><path class="cls-6" d="M26.54,30.47l-1.35-.78-6.64,11.5L19.9,42a1.17,1.17,0,0,0,1.6-.43L27,32.07A1.16,1.16,0,0,0,26.54,30.47Z"/><path class="cls-5" d="M43.08,39.84A1.17,1.17,0,0,0,41.91,41v7.81h2.34V41A1.17,1.17,0,0,0,43.08,39.84Z"/><path class="cls-6" d="M44.25,48.83V41a1.17,1.17,0,0,0-1.17-1.18v9Z"/><path class="cls-6" d="M46.2,50H40a1.17,1.17,0,0,1,0-2.34H46.2a1.17,1.17,0,1,1,0,2.34Z"/><path class="cls-5" d="M49.68,33.21l-1.58-5A1.17,1.17,0,0,0,47,27.34H39.17a1.19,1.19,0,0,0-1.12.83l-1.57,5v2.73h13.2Z"/><path class="cls-6" d="M49.68,33.21l-1.58-5A1.17,1.17,0,0,0,47,27.34h-3.9v8.6h6.6Z"/><path class="cls-8" d="M49.68,33.21h0c-3.28,0-3.23,1.16-6.6,1.16s-3.32-1.14-6.6-1.16h0a6.91,6.91,0,1,0,13.2,0Z"/><path class="cls-7" d="M46.2,47.66H43.08V50H46.2a1.17,1.17,0,1,0,0-2.34Z"/><path class="cls-2" d="M49.68,33.21h0c-3.28,0-3.23,1.16-6.6,1.16v7.82a6.92,6.92,0,0,0,6.6-9Z"/></g></g></g></svg>