<svg xmlns="http://www.w3.org/2000/svg" viewBox="0 0 60 60"><defs><style>.cls-1{fill:#23b3f2;}.cls-2{fill:#9b9b9b;}.cls-3{fill:#e30020;}.cls-4{fill:#aa0018;}.cls-5{fill:#e5e5e5;}.cls-6{fill:#cfcfcf;}.cls-7{fill:#ffe7c3;}.cls-8{fill:#ffcf87;}.cls-9{fill:#00c47a;}.cls-10{fill:#fc334f;}</style></defs><g id="Layer_2" data-name="Layer 2"><g id="Layer_1-2" data-name="Layer 1"><g id="canned"><circle class="cls-1" cx="30" cy="30" r="30"/><path class="cls-2" d="M40,17.37H34.73L25.1,13.52a6.08,6.08,0,0,1-3.84-5.67H23.6A3.73,3.73,0,0,0,26,11.34L35.18,15H40v2.34Z"/><polygon class="cls-3" points="30.91 17.05 18.75 17.05 18.75 22.62 20.32 27.85 18.75 42.11 18.75 47.85 30.91 47.85 30.91 17.05"/><polygon class="cls-4" points="30.52 17.05 30.52 47.85 42.29 47.85 42.29 42.11 40.73 27.85 42.29 22.62 42.29 17.05 30.52 17.05"/><path class="cls-5" d="M18.75,15v2.34H42.29V15Z"/><rect class="cls-6" x="30.52" y="15.03" width="11.77" height="2.34"/><path class="cls-7" d="M18.75,22.62V42.11H42.29V22.62Z"/><rect class="cls-8" x="30.52" y="22.62" width="11.77" height="19.49"/><rect class="cls-9" x="29.35" y="24.55" width="2.34" height="3.35"/><path class="cls-10" d="M36.82,27.87a5.55,5.55,0,0,0-4-1.65,6.51,6.51,0,0,0-2.26.4,6.41,6.41,0,0,0-2.25-.4,5.54,5.54,0,0,0-4,1.65,6.22,6.22,0,0,0-1.65,4.45,7.58,7.58,0,0,0,4.06,6.41,8.38,8.38,0,0,0,3.88.89,8.25,8.25,0,0,0,3.86-.88,7.61,7.61,0,0,0,4.09-6.42A6.22,6.22,0,0,0,36.82,27.87Z"/><path class="cls-3" d="M36.82,27.87a5.55,5.55,0,0,0-4-1.65,6.51,6.51,0,0,0-2.26.4v13a8.25,8.25,0,0,0,3.86-.88,7.61,7.61,0,0,0,4.09-6.42A6.22,6.22,0,0,0,36.82,27.87Z"/></g></g></g></svg>