<svg xmlns="http://www.w3.org/2000/svg" viewBox="0 0 60 60"><defs><style>.cls-1{fill:#ff3257;}.cls-2{fill:#ffe7c3;}.cls-3{fill:#ffcf87;}.cls-4{fill:#ffaf37;}.cls-5{fill:#f90;}.cls-6{fill:#f70;}.cls-7{fill:#fff;}</style></defs><g id="Layer_2" data-name="Layer 2"><g id="Layer_1-2" data-name="Layer 1"><g id="carbs"><circle class="cls-1" cx="30" cy="30" r="30"/><path class="cls-2" d="M37.62,11.31a41.33,41.33,0,0,0-6.24-3.15L31,8l-.43.16a41.85,41.85,0,0,0-6.24,3.15c-4.38,2.73-6.6,5.55-6.6,8.36H44.22C44.22,16.86,42,14,37.62,11.31Z"/><path class="cls-3" d="M30.94,19.67H44.22c0-2.81-2.22-5.63-6.6-8.36a41.33,41.33,0,0,0-6.24-3.15L31,8h0Z"/><path class="cls-4" d="M45.91,40.9c2-7.48,1.87-14.48-.52-20.87l-.28-.76H16.8l-.28.76C14.13,26.42,14,33.42,16,40.9a4.53,4.53,0,0,0-2.06,3.8V48H48V44.7A4.53,4.53,0,0,0,45.91,40.9Z"/><path class="cls-5" d="M45.91,40.9c2-7.48,1.87-14.48-.52-20.87l-.28-.76H30.94V48H48V44.7A4.53,4.53,0,0,0,45.91,40.9Z"/><path class="cls-5" d="M14.78,16v5a2.34,2.34,0,0,0,2.34,2.34H44.79A2.35,2.35,0,0,0,47.14,21V16Z"/><path class="cls-6" d="M31,16v7.35H44.79A2.35,2.35,0,0,0,47.14,21V16Z"/><path class="cls-7" d="M38.53,30.81s-3.69-1.58-5.78-.08c-1.39,1-1.73,3.1-1.79,4.4-.07-1.3-.4-3.41-1.79-4.4-2.1-1.5-5.79.08-5.79.08s-.3,4,1.79,5.5c1.35,1,3.35.65,4.61.31v4.71h2.35V36.62c1.26.34,3.26.65,4.61-.31C38.83,34.82,38.53,30.81,38.53,30.81Z"/><path class="cls-2" d="M38.53,30.81s-3.69-1.58-5.78-.08c-1.39,1-1.73,3.1-1.79,4.4v6.2h1.17V36.62c1.26.34,3.26.65,4.61-.31C38.83,34.82,38.53,30.81,38.53,30.81Z"/></g></g></g></svg>