<svg xmlns="http://www.w3.org/2000/svg" viewBox="0 0 60 60"><defs><style>.cls-1{fill:#ff7750;}.cls-2{fill:#5aaae7;}.cls-3{fill:#96c8ef;}.cls-4{fill:#d1e7f8;}.cls-5{fill:#3d9ae2;}.cls-6{fill:#006df0;}.cls-7{fill:#00479b;}.cls-8{fill:#fff;}</style></defs><g id="Layer_2" data-name="Layer 2"><g id="Layer_1-2" data-name="Layer 1"><g id="dairy"><circle class="cls-1" cx="30" cy="30" r="30"/><path class="cls-2" d="M37.26,10.35H25c-.9,0-1.64.55-1.64,1.22v2.48c0,.68.74,1.23,1.64,1.23h12.3c.9,0,1.63-.55,1.63-1.23V11.57C38.89,10.9,38.16,10.35,37.26,10.35Z"/><path class="cls-3" d="M23.43,13.68a2.06,2.06,0,0,0-1.55.69L15.33,22.6l12.6,3,9.9-1.49,1.06-10.47Z"/><path class="cls-2" d="M23,17.53a.59.59,0,0,1-.38-.14.61.61,0,0,1-.1-.86l.63-.78a.61.61,0,0,1,.86-.1.61.61,0,0,1,.09.86l-.62.79A.62.62,0,0,1,23,17.53Z"/><path class="cls-2" d="M20.19,21a.63.63,0,0,1-.39-.13.62.62,0,0,1-.09-.86l1.71-2.15a.61.61,0,1,1,1,.76l-1.72,2.15A.57.57,0,0,1,20.19,21Z"/><path class="cls-4" d="M16,22.25H35.82a.91.91,0,0,1,.9.9v26.3a.91.91,0,0,1-.9.9H16a.91.91,0,0,1-.9-.9V23.15A.91.91,0,0,1,16,22.25Z"/><rect class="cls-3" x="15.13" y="39.29" width="29.73" height="1.96"/><path class="cls-2" d="M44.67,22.28l-5.16-8.22a.76.76,0,0,0-.62-.38h0a.74.74,0,0,0-.61.38l-5.16,8.19a1.41,1.41,0,0,0-.2.74V49.23c0,.62.36,1.12.81,1.12H44.05c.45,0,.82-.5.82-1.12V23A1.34,1.34,0,0,0,44.67,22.28Z"/><path class="cls-5" d="M38.89,13.68a.74.74,0,0,0-.61.38l-5.16,8.19a1.41,1.41,0,0,0-.2.74V49.23c0,.62.36,1.12.81,1.12h5.16V13.68Z"/><path class="cls-3" d="M33.12,22.25a1.41,1.41,0,0,0-.2.74V49.23c0,.62.36,1.12.81,1.12H44.05c.45,0,.82-.5.82-1.12V23a1.44,1.44,0,0,0-.2-.72Z"/><rect class="cls-2" x="32.92" y="39.29" width="11.94" height="1.96"/><rect class="cls-6" x="15.13" y="29.66" width="29.73" height="9.64"/><rect class="cls-7" x="32.92" y="29.66" width="11.94" height="9.64"/><path class="cls-8" d="M20.88,37.19a.62.62,0,0,1-.61-.61V34.26l-.44.75a.62.62,0,0,1-.52.3h0a.61.61,0,0,1-.52-.29l-.52-.85v2.41a.62.62,0,0,1-1.23,0V32a.62.62,0,0,1,1.14-.32l1.12,1.82,1.07-1.81a.61.61,0,0,1,.69-.28.62.62,0,0,1,.45.59v4.57A.62.62,0,0,1,20.88,37.19Z"/><path class="cls-8" d="M22.79,37.19a.62.62,0,0,1-.62-.61V32a.62.62,0,0,1,1.23,0v4.57A.62.62,0,0,1,22.79,37.19Z"/><path class="cls-8" d="M26.57,37.19H24.64a.61.61,0,0,1-.61-.61V32a.61.61,0,0,1,1.22,0v4h1.32a.62.62,0,0,1,0,1.23Z"/><path class="cls-8" d="M31.36,36.25,29.9,33.94l1.19-1.56a.61.61,0,0,0-1-.74l-1.32,1.74V32a.62.62,0,0,0-1.23,0v4.57a.62.62,0,0,0,1.23,0V35.39l.32-.42,1.22,1.93a.65.65,0,0,0,.84.19A.61.61,0,0,0,31.36,36.25Z"/></g></g></g></svg>