<svg xmlns="http://www.w3.org/2000/svg" viewBox="0 0 60 60"><defs><style>.cls-1{fill:#ff7750;}.cls-2{fill:#a56a43;}.cls-3{fill:#f0c419;}.cls-4{fill:#df4d60;}.cls-5{fill:#802f34;}.cls-6{fill:#c03a2b;}.cls-7{fill:#24ae5f;}</style></defs><g id="Layer_2" data-name="Layer 2"><g id="Layer_1-2" data-name="Layer 1"><g id="dessert"><circle class="cls-1" cx="30" cy="30" r="30"/><g id="Page-1"><g id="_030---Cake" data-name="030---Cake"><path id="Shape" class="cls-2" d="M47,37.76c1.71,1.2,2.68,2.61,2.68,4.1,0,4.5-8.8,8.14-19.66,8.14s-19.66-3.64-19.66-8.14c0-1.49,1-2.9,2.68-4.1Z"/><path id="Shape-2" data-name="Shape" class="cls-3" d="M18.47,20.17l-6.1,19.66c0,3.37,7.89,6.1,17.63,6.1s17.63-2.73,17.63-6.1l-6.1-19.66"/><path id="Shape-3" data-name="Shape" class="cls-4" d="M34.48,16.42c4.14.62,7.05,2.07,7.05,3.75,0,2.24-5.16,4.07-11.53,4.07s-11.53-1.83-11.53-4.07c0-1.75,3.14-3.24,7.52-3.82Z"/><path id="Shape-4" data-name="Shape" class="cls-5" d="M31.64,21.42a5.27,5.27,0,0,0,2.83-3.28l.06-.3a2.42,2.42,0,0,0-1.46-2.95,2.91,2.91,0,0,0-2.35.42,2.92,2.92,0,0,0-1.85-1.51c-1.25-.33-2.43.7-2.8,2.15a5.06,5.06,0,0,0,.19,3h0a6.08,6.08,0,0,0,1.87,2.57Z"/><path id="Shape-5" data-name="Shape" class="cls-6" d="M29.32,22.2a18.38,18.38,0,0,1-3-.2.67.67,0,0,1,.23-1.33,23.53,23.53,0,0,0,8-.38.68.68,0,0,1,.66.2.66.66,0,0,1,.14.67.64.64,0,0,1-.51.45,26.44,26.44,0,0,1-5.53.59Z"/><path id="Shape-6" data-name="Shape" class="cls-7" d="M30.84,15.8a.68.68,0,0,1-.67-.67A5.09,5.09,0,0,1,33,10.54,5.49,5.49,0,0,1,38.5,11a.68.68,0,0,1,.15.95.67.67,0,0,1-.94.15,4.15,4.15,0,0,0-4.1-.33,3.78,3.78,0,0,0-2.09,3.35.68.68,0,0,1-.66.7Z"/><path id="Shape-7" data-name="Shape" class="cls-6" d="M42.11,31c.1,1.12,1,2,1,3.12a1.43,1.43,0,0,1-.62,1.41,1.41,1.41,0,0,1-1.54,0,5,5,0,0,1-1.43-1.39,5.35,5.35,0,0,0-1.18-1.33,1.8,1.8,0,0,0-1.67-.32,2,2,0,0,0-1,2.14,7.21,7.21,0,0,0,.63,1.92,4,4,0,0,1,.45,2.8,2.23,2.23,0,0,1-3.41,1.07,2.87,2.87,0,0,1-.92-1.33c-.48-1.3-.31-3.14-1.71-3.91a1.54,1.54,0,0,0-1.29-.12,1.49,1.49,0,0,0-.83,1.46c-.11,1.67,0,3.69-1.77,4.57a2.1,2.1,0,0,1-2.3-.24,2.18,2.18,0,0,1-.65-1.4,4.82,4.82,0,0,1,.36-2,15.28,15.28,0,0,0,.68-2,2.94,2.94,0,0,0-.19-2A1.62,1.62,0,0,0,22,33.15c-.78.88-.81,2.11-1.36,3.11a1.72,1.72,0,0,1-1.24,1c-1.66.19-2-2.15-1.84-3.29.2-1.54.94-3,.91-4.57,0-1.19-.79-2.67-2-2.76l2-6.47c0,2.24,5.16,4.07,11.53,4.07s11.53-1.83,11.53-4.07l2.57,8.28a2.31,2.31,0,0,0-2,2.52Z"/></g></g></g></g></g></svg>