<svg xmlns="http://www.w3.org/2000/svg" viewBox="0 0 60 60"><defs><style>.cls-1{fill:#f5df5d;}.cls-2{fill:#7fb241;}.cls-3{fill:#8e6d53;}.cls-4{fill:#e14b4b;}.cls-5{fill:#d03f3f;}</style></defs><g id="Layer_2" data-name="Layer 2"><g id="Layer_1-2" data-name="Layer 1"><g id="fruit"><circle class="cls-1" cx="30" cy="30" r="30"/><path class="cls-2" d="M30.12,19.56A8.47,8.47,0,0,1,20.6,10,8.47,8.47,0,0,1,30.12,19.56Z"/><path class="cls-3" d="M30.34,23.58a1.26,1.26,0,0,1-.95-1.08,9.31,9.31,0,0,1,8.24-10.28,1.26,1.26,0,0,1,.28,2.51,6.78,6.78,0,0,0-6,7.49,1.26,1.26,0,0,1-1.12,1.39A1.08,1.08,0,0,1,30.34,23.58Z"/><path class="cls-4" d="M39.69,19.55a7.31,7.31,0,0,0-4.19.15,17.82,17.82,0,0,1-11,0,7.34,7.34,0,0,0-4.2-.15C14.81,21,12.16,29,14.38,37.31s8.48,13.92,14,12.46h0a6.14,6.14,0,0,1,3.24,0h0c5.5,1.46,11.76-4.12,14-12.46S45.19,21,39.69,19.55Z"/><path class="cls-5" d="M45.62,37.31c-2.22,8.34-8.48,13.92-14,12.46h0a6,6,0,0,0-3.25,0h0a8.1,8.1,0,0,1-6.26-1.11C32.88,44.5,41,34,42.65,21.16,46.06,24.22,47.4,30.64,45.62,37.31Z"/></g></g></g></svg>