<svg xmlns="http://www.w3.org/2000/svg" viewBox="0 0 60 60"><defs><style>.cls-1{fill:#4e37b2;}.cls-2{fill:#884d00;}.cls-3{fill:#aa6100;}.cls-4{fill:#ffa733;}.cls-5{fill:#ffb655;}.cls-6{fill:#eebf00;}.cls-7{fill:#ffd422;}.cls-8{fill:#6dc82a;}.cls-9{fill:#7ed63e;}.cls-10{fill:#ff3501;}.cls-11{fill:#ff5023;}.cls-12{fill:#fff5cc;}</style></defs><g id="Layer_2" data-name="Layer 2"><g id="Layer_1-2" data-name="Layer 1"><g id="junkfood"><circle class="cls-1" cx="30" cy="30" r="30"/><path class="cls-2" d="M47.57,33.65A2.61,2.61,0,0,1,45,36.27H14.69a2.61,2.61,0,0,1-2.38-3.7,2.71,2.71,0,0,1,.53-.77A2.62,2.62,0,0,1,14.69,31H45a2.6,2.6,0,0,1,2.61,2.61Z"/><path class="cls-3" d="M47.34,32.57a2.58,2.58,0,0,1-.53.77A2.63,2.63,0,0,1,45,34.1H14.69a2.61,2.61,0,0,1-2.38-1.53,2.71,2.71,0,0,1,.53-.77A2.62,2.62,0,0,1,14.69,31H45A2.61,2.61,0,0,1,47.34,32.57Z"/><path class="cls-4" d="M49.82,38.38a8.65,8.65,0,0,1-4.08,7.54,18.1,18.1,0,0,1-9.86,2.48H23.77c-7.7,0-13.95-3.28-13.95-10a2.25,2.25,0,0,1,.27-1.05,2.53,2.53,0,0,1,.58-.73,3.06,3.06,0,0,1,2-.74H47a2.91,2.91,0,0,1,2.61,1.47A2.24,2.24,0,0,1,49.82,38.38Z"/><path class="cls-5" d="M49.56,37.33a8.67,8.67,0,0,1-3.82,5.26,18.1,18.1,0,0,1-9.86,2.48H23.77c-6.78,0-12.42-2.54-13.68-7.74a2.53,2.53,0,0,1,.58-.73,3.06,3.06,0,0,1,2-.74H47A2.91,2.91,0,0,1,49.56,37.33Z"/><path class="cls-6" d="M41,29.94l-6.77,6.77a3.79,3.79,0,0,1-.54.45A3.69,3.69,0,0,1,29,36.71l-6.76-6.77Z"/><path class="cls-7" d="M41,29.94l-6.77,6.77a3.79,3.79,0,0,1-.54.45,3.59,3.59,0,0,1-1.41-.89l-6.34-6.33Z"/><path class="cls-8" d="M49.06,30.89A3.12,3.12,0,0,1,48.88,32c-.5,1.38-1.83,1.92-2.86,1.15l-1.25-.91a1.75,1.75,0,0,0-2.6.61l-.05.09a1.76,1.76,0,0,1-2.51.68l-2.79-1.82a1.67,1.67,0,0,0-2,.12L32.57,33.7a1.67,1.67,0,0,1-2.12,0l-2.54-1.89a1.67,1.67,0,0,0-2.1.05L23.5,33.75a1.67,1.67,0,0,1-2.05.07l-3-2.08a1.65,1.65,0,0,0-1.9,0l-2.8,1.83A2.91,2.91,0,0,1,11,32.41a3.12,3.12,0,0,1-.25-2.47,2.09,2.09,0,0,1,1.89-1.63H47a2.1,2.1,0,0,1,1.89,1.63A3.26,3.26,0,0,1,49.06,30.89Z"/><path class="cls-9" d="M48.92,29.94s0,.08,0,.12c-.5,1.39-1.83,1.92-2.86,1.16l-1.25-.92a1.75,1.75,0,0,0-2.6.62l-.05.08a1.76,1.76,0,0,1-2.51.68l-2.79-1.82a1.67,1.67,0,0,0-2,.12L32.57,31.8a1.67,1.67,0,0,1-2.12.05L27.91,30a1.66,1.66,0,0,0-2.1,0L23.5,31.85a1.67,1.67,0,0,1-2.05.07l-3-2.08a1.65,1.65,0,0,0-1.9,0l-2.8,1.83A2.91,2.91,0,0,1,11,30.51a2.41,2.41,0,0,1-.25-.57,2.09,2.09,0,0,1,1.89-1.63H47A2.1,2.1,0,0,1,48.92,29.94Z"/><path class="cls-10" d="M48.37,26.63a2.46,2.46,0,0,1-.1.78,2.61,2.61,0,0,1-2.52,1.9c-4.7,0-17.22-.1-19.11,0h-.12c-2.39.09-2.93.47-2.93,1.75v4.65a.87.87,0,0,1-.26.61.83.83,0,0,1-.61.25.86.86,0,0,0-.86.87v2a2.33,2.33,0,0,1-.08.59A2.51,2.51,0,0,1,19.32,42h-.07a2.46,2.46,0,0,1-2.46-2.47V35.81a1,1,0,0,1,.3-.72,1,1,0,0,1,.72-.3,1,1,0,0,0,1-1V31a1.7,1.7,0,0,0-1.7-1.71H14a2.65,2.65,0,0,1-2.67-2.57,2.61,2.61,0,0,1,2.62-2.67H45.7A2.65,2.65,0,0,1,48.37,26.63Z"/><path class="cls-11" d="M48.37,26.63a2.46,2.46,0,0,1-.1.78c-5,0-16.86-.1-18.7,0-2.49.08-3.05.46-3.05,1.75v.15c-2.39.09-2.93.47-2.93,1.75v4.65a.87.87,0,0,1-.26.61.83.83,0,0,1-.61.25.86.86,0,0,0-.86.87v2a2.33,2.33,0,0,1-.08.59,2.47,2.47,0,0,1-2.07-2.44l0-3.67a1,1,0,0,1,.3-.72,1,1,0,0,1,.72-.29,1,1,0,0,0,1-1V29.12a1.71,1.71,0,0,0-1.7-1.71H16.88a2.66,2.66,0,0,1-2.68-2.56,2.45,2.45,0,0,1,.11-.78H45.7A2.65,2.65,0,0,1,48.37,26.63Z"/><path class="cls-6" d="M33.37,21.4l-5.8,5.81a5.16,5.16,0,0,1-7.3,0L14.46,21.4Z"/><path class="cls-7" d="M33.37,21.4l-5.8,5.81a5.2,5.2,0,0,1-2,1.24,5.2,5.2,0,0,1-2-1.24l-5.8-5.81Z"/><path class="cls-4" d="M49.82,22.22v.13a2.19,2.19,0,0,1-.63,1.4,2.15,2.15,0,0,1-1.53.63H12a2.16,2.16,0,0,1-2.16-2.16,7.48,7.48,0,0,1,3-6,16.62,16.62,0,0,1,5.31-2.7,42.42,42.42,0,0,1,11.67-1.75S49.82,11.65,49.82,22.22Z"/><path class="cls-5" d="M49.82,22.22v.13H16.38a2.16,2.16,0,0,1-2.16-2.17,7.49,7.49,0,0,1,3-6,10.31,10.31,0,0,1,.92-.67,42.42,42.42,0,0,1,11.67-1.75S49.82,11.65,49.82,22.22Z"/><path class="cls-12" d="M40.57,15.54a.91.91,0,1,1-1.32,1.25c-.35-.37-1-1.64-.62-2S40.23,15.17,40.57,15.54Z"/><path class="cls-12" d="M35.73,20.05a.93.93,0,0,1-.53,1.19A.92.92,0,0,1,34,20.71c-.18-.47-.29-1.89.18-2.07S35.55,19.58,35.73,20.05Z"/><path class="cls-12" d="M30.74,16.29a.92.92,0,1,1-1.83,0c0-.5.41-1.86.91-1.86S30.74,15.79,30.74,16.29Z"/><path class="cls-12" d="M25.71,20.63a.91.91,0,0,1-1.77-.46c.13-.49.86-1.71,1.35-1.58S25.84,20.14,25.71,20.63Z"/><path class="cls-12" d="M20.68,16.64A.91.91,0,1,1,19,15.85c.22-.46,1.18-1.51,1.63-1.29S20.9,16.19,20.68,16.64Z"/></g></g></g></svg>