<svg xmlns="http://www.w3.org/2000/svg" viewBox="0 0 60 60"><defs><style>.cls-1{fill:#70da40;}.cls-2{fill:#ff7b8b;}.cls-3{fill:#ff4755;}.cls-4{fill:#994e37;}.cls-5{fill:#8c4534;}.cls-6{fill:#f4e9d3;}.cls-7{fill:#e5d6be;}</style></defs><g id="Layer_2" data-name="Layer 2"><g id="Layer_1-2" data-name="Layer 1"><g id="meat"><circle class="cls-1" cx="30" cy="30" r="30"/><path class="cls-2" d="M26,44.92c5.15-2.24,1-8.14,8.3-11.61,6.49-3.08,13.27-4,12.07-13.35S28.57,5.64,18.76,15C8.54,24.66,14.3,50,26,44.92Z"/><path class="cls-3" d="M25.38,42.53c2.61-1.12,1.46-9.33,8.21-11.7,6.23-2.18,11.2-4.88,10.88-9.95C44,14,29,8.68,20.46,17c-8.32,8.15-4.31,29.5,4.92,25.49Z"/><path class="cls-4" d="M34.32,33.31C27,36.78,31.17,42.68,26,44.92c-7.47,3.26-12.52-5.87-12.55-15.43h0v4h0c.12,8.68,4.64,17.38,12.44,16.48,5.51-.64,5.22-10.14,8.4-12.08,5.69-3.46,12.25-4,12.2-11.48h0v-4c-.22,7.1-6.33,8.13-12.21,10.92Z"/><path class="cls-5" d="M33.59,36.41c-4.16,2.86-2.88,11.44-8.39,12.08-4.34.5-7.67-2-9.78-5.76,2,4.59,5.63,7.77,10.5,7.21,5.51-.64,5.22-10.14,8.4-12.08,5.69-3.46,12.25-4,12.2-11.48h0v-4C46.53,32.42,39.09,32.64,33.59,36.41Z"/><ellipse class="cls-6" cx="30.73" cy="21.45" rx="3.36" ry="2.19"/><path class="cls-7" d="M30.73,22.2a3.6,3.6,0,0,1-3.18-1.47,1.55,1.55,0,0,0-.19.72c0,1.21,1.51,2.2,3.37,2.2s3.36-1,3.36-2.2a1.55,1.55,0,0,0-.19-.72A3.58,3.58,0,0,1,30.73,22.2Z"/></g></g></g></svg>