<svg xmlns="http://www.w3.org/2000/svg" viewBox="0 0 60 60"><defs><style>.cls-1{fill:#ff3257;}.cls-2{fill:#19a995;}.cls-3{fill:#0d7579;}.cls-4{fill:#fff5f5;}.cls-5{fill:#ebebf0;}.cls-6{fill:#fef176;}.cls-7{fill:#c8885e;}.cls-8{fill:#a97450;}.cls-9{fill:#885142;}.cls-10{fill:#fecb2e;}.cls-11{fill:#f2e3cb;}.cls-12{fill:#92e170;}.cls-13{fill:#1fc979;}</style></defs><g id="Layer_2" data-name="Layer 2"><g id="Layer_1-2" data-name="Layer 1"><g id="oils"><circle class="cls-1" cx="30" cy="30" r="30"/><path class="cls-2" d="M26.2,25.14a4.31,4.31,0,0,0-4.3,4.3v1.75h2.68a4.31,4.31,0,0,0,4.3-4.3V25.14Z"/><path class="cls-2" d="M15.06,28.87H10v1.92a4.85,4.85,0,0,0,4.85,4.84h5.06V33.71a4.85,4.85,0,0,0-4.85-4.84Z"/><path class="cls-3" d="M10,28.87v1.92a4.85,4.85,0,0,0,4.85,4.84h5.06Z"/><path class="cls-3" d="M21.9,31.19h2.68a4.31,4.31,0,0,0,4.3-4.3V25.14Z"/><path class="cls-4" d="M31,17.33v2.35H33v6l-2.6,4.82c-.25.45-.47.9-.69,1.36h7l.87-6.63-.87-7.92Z"/><path class="cls-5" d="M45.29,19.2H41V17.33H36.7V31.88h7.57c-.21-.46-.44-.91-.68-1.36L41,25.7V21.55h4.31a2.36,2.36,0,0,1,2.36,2.36v1a2.16,2.16,0,0,1-2.16,2.16v2.35A4.51,4.51,0,0,0,50,24.9v-1a4.71,4.71,0,0,0-4.71-4.71Z"/><path class="cls-6" d="M29.66,31.88a24.68,24.68,0,0,0-2.15,7.78l.4,7.67H36.7l2.2-7.92-2.2-7.53Z"/><path class="cls-7" d="M33.21,12.67,34,17.33l2.72.87V12.67Z"/><path class="cls-8" d="M40.19,12.67H36.7V18.2l2.72-.87Z"/><path class="cls-8" d="M34,17.33l.39,2.37H36.7l.87-1-.87-1.34Z"/><path class="cls-9" d="M39.42,17.33H36.7V19.7H39Z"/><path class="cls-10" d="M46.56,42.27a24.7,24.7,0,0,0-2.29-10.39H36.7V47.33h9.86Z"/><path class="cls-11" d="M21,26.16a6.65,6.65,0,0,0-.87-1.05l-2-2.05-1.66,1.66,2,2.05a4.62,4.62,0,0,1,1.37,3.31v7.71h2.35V30.08A6.94,6.94,0,0,0,21,26.16Z"/><path class="cls-12" d="M21,37.36a4,4,0,0,0-4,4v2a4,4,0,0,0,4,4l.6-5.16Z"/><path class="cls-13" d="M21,37.36v10a4,4,0,0,0,4-4v-2a4,4,0,0,0-4-4Z"/><path class="cls-12" d="M25.71,39.41a4,4,0,0,0,0,7.92h1.06l1.19-4-1.19-4Z"/><path class="cls-13" d="M27.76,39.41h-1v7.92h1a4,4,0,0,0,0-7.92Z"/></g></g></g></svg>