<svg xmlns="http://www.w3.org/2000/svg" viewBox="0 0 60 60"><defs><style>.cls-1{fill:#70da40;}.cls-2{fill:#eb5468;}.cls-10,.cls-2,.cls-3,.cls-4,.cls-5,.cls-7,.cls-8,.cls-9{fill-rule:evenodd;}.cls-3,.cls-6{fill:#e5384f;}.cls-4{fill:#d87e49;}.cls-5{fill:#ffd772;}.cls-7{fill:#dfa7d2;}.cls-8{fill:#d691c6;}.cls-9{fill:#fbba58;}.cls-10{fill:#c86d35;}</style></defs><g id="Layer_2" data-name="Layer 2"><g id="Layer_1-2" data-name="Layer 1"><g id="spices"><circle class="cls-1" cx="30" cy="30" r="30"/><path class="cls-2" d="M20.47,25.71H46.55c0-3.93-3.44-3.2-4.59-5.53-1.55-3.14-6.72-4-8.77-1.25-.49.56-1.48,1.61-5.07.89-3.41-.69-7.93,2.9-7.65,5.89Z"/><path class="cls-3" d="M33.47,18.6A5.8,5.8,0,0,1,39,21.49c1,2,3.74,1.73,4.43,4.22h3.1c0-3.93-3.44-3.2-4.59-5.53-1.49-3-6.29-3.92-8.49-1.58Z"/><path class="cls-4" d="M49.26,16.92l-2.71,8.79-3.26,2.21L40.4,25.71,45,15C45.9,13,50.36,13.34,49.26,16.92Z"/><path class="cls-5" d="M20.1,25.71H48.5A1.51,1.51,0,0,1,50,27.22v7.26a8.79,8.79,0,0,1-8.77,8.76H27.37A8.78,8.78,0,0,1,20,39.19c-.88-1.36.75-3.49.62-5.22l-.33-4.72-1.68-2c-.53-.64.68-1.51,1.5-1.51Z"/><path class="cls-6" d="M31.32,22.1a.61.61,0,0,1-.6-.54,19.51,19.51,0,0,0-2.15-6.74.6.6,0,1,1,1-.6,20.19,20.19,0,0,1,2.31,7.22.6.6,0,0,1-.53.66Z"/><path class="cls-6" d="M35.44,23a2.25,2.25,0,0,1-1.56-.63.61.61,0,1,1,.84-.88,1,1,0,0,0,1.42,0,.61.61,0,1,1,.82.89,2.22,2.22,0,0,1-1.52.6Z"/><path class="cls-6" d="M26.91,23.18a.6.6,0,0,1-.55-.35c-1-2.16-2.68-3.55-3.76-3.76a.61.61,0,0,1-.48-.71.6.6,0,0,1,.71-.47c1.64.31,3.59,2.18,4.63,4.43a.6.6,0,0,1-.3.8A.54.54,0,0,1,26.91,23.18Z"/><path class="cls-7" d="M10,29c4.39-1.49,6.33,1,9.51,3.47L20.28,34,18.71,34C14.62,33.19,11.92,33.46,10,29Z"/><path class="cls-7" d="M17.39,35.65a.84.84,0,0,0,.07.53.82.82,0,0,0,.69.4C15.38,38.71,13.91,40.34,10,39c1.92-4.42,4.62-4.15,8.71-5a2.73,2.73,0,0,0-1.32,1.62Z"/><path class="cls-7" d="M20.59,21.84c-3.27,3.69-1.91,5.69-1,10a2.22,2.22,0,0,1,.33-.69.82.82,0,0,1,.63-.38c.51,0,.81.5,1,1.11C22.49,27.55,23.86,25.54,20.59,21.84Z"/><path class="cls-7" d="M31.18,29c-4.4-1.49-6.33,1-9.51,3.47L20.89,34l1.58.06C26.56,33.19,29.26,33.46,31.18,29Z"/><path class="cls-7" d="M23.78,35.65a.78.78,0,0,1-.06.53.85.85,0,0,1-.69.4c2.77,2.13,4.23,3.76,8.15,2.43-1.92-4.42-4.62-4.15-8.71-5a2.71,2.71,0,0,1,1.31,1.62Z"/><path class="cls-8" d="M20,22.58c1.4.76,1.27,6.18,1,8.3a1.72,1.72,0,0,1,.56,1c.94-4.31,2.31-6.32-1-10-.23.26-.43.51-.62.74Z"/><path class="cls-7" d="M20.57,34.7c-.28.28-.6,1.35-.95,1.53-.94,4.3-2.3,6.29,1,10,3.26-3.69,1.91-5.68,1-10-.09-.05-.09-.86-.27-1a4.83,4.83,0,0,1-.72-.57Z"/><path class="cls-5" d="M22.44,34a3.54,3.54,0,0,0-.77-.36c.12-.85-.07-2.9-1.09-2.9-.62,0-1.13,1-1.13,2.26a4.58,4.58,0,0,0,0,.64,3.27,3.27,0,0,0-.76.36c-1,.62-1.6,1.6-1.28,2.17s1.39.54,2.41-.09a3.48,3.48,0,0,0,.72-.57,3.77,3.77,0,0,0,.72.57c1,.63,2.1.67,2.42.09s-.26-1.55-1.28-2.17Z"/><path class="cls-9" d="M20.58,30.75a.82.82,0,0,0-.63.38c.94,1.56.61,4.41.63,4.39a3.77,3.77,0,0,0,.72.57c1,.63,2.1.67,2.42.09s-.26-1.55-1.28-2.17a3.54,3.54,0,0,0-.77-.36c.12-.85-.07-2.9-1.09-2.9Z"/><path class="cls-8" d="M23,36.58c2.77,2.13,4.23,3.76,8.14,2.43-.1-.25-.21-.48-.32-.7-3-.05-4.62-1-7.19-2a.89.89,0,0,1-.63.31Z"/><path class="cls-8" d="M19.7,45.1a12.71,12.71,0,0,0,.89,1.11c3.26-3.69,1.91-5.68,1-10l-.26-.14L21,35.88C20.88,35.8,20.86,43.7,19.7,45.1Z"/><path class="cls-8" d="M22.47,34c4.09-.84,6.79-.57,8.71-5a8.8,8.8,0,0,0-1.36-.35C28.08,30.91,21.75,33.72,22.47,34Z"/><path class="cls-8" d="M11.12,39.33c2.2-2.52,4.26-3,6.54-4.34a3.56,3.56,0,0,1,1-1c-4.08.83-6.77.57-8.69,5a10.28,10.28,0,0,0,1.12.32Z"/><path class="cls-8" d="M10.52,30.09c4.17-.06,8,2.75,8.93,2.92a4.41,4.41,0,0,1,0-.52C16.31,30.06,14.38,27.55,10,29A10.28,10.28,0,0,0,10.52,30.09Z"/><path class="cls-9" d="M45,27.22v7.26a8.73,8.73,0,0,1-1.64,5.09,3.47,3.47,0,0,1,3.11,1.61l.18.19a8.78,8.78,0,0,0,3-4.39,8.59,8.59,0,0,0,.37-2.5V27.22a1.51,1.51,0,0,0-.37-1,1.48,1.48,0,0,0-1.13-.52h-5A1.51,1.51,0,0,1,45,27.22Z"/><path class="cls-10" d="M46.64,16.92l-1.72,5.57-1,3.22h2.62l2.71-8.79c.89-2.89-1.85-3.66-3.39-2.8.76.45,1.21,1.36.77,2.8Z"/><path class="cls-2" d="M48.67,43.85h0a.24.24,0,0,1-.23.17H30.67a.23.23,0,0,1-.24-.27c.25-2.61,4.4-3.9,6.6-3.18,2.64.87,3.66.09,4.09-.17.24-.14.47-.27.69-.37,2.25-1.07,3.56-.19,4.64,1.15.91,1.11,2.6,1.06,2.22,2.67Z"/><path class="cls-3" d="M48.67,43.85h0a.24.24,0,0,1-.23.17H45.18a2.05,2.05,0,0,0-.39-1.54,9,9,0,0,1-1.8-1.3A5.59,5.59,0,0,0,41.79,40h0c2.25-1.07,3.56-.19,4.64,1.15.91,1.11,2.6,1.06,2.22,2.67Z"/></g></g></g></svg>